<svg class="svg-icon" style="width: 1em; height: 1em;vertical-align: middle;fill: currentColor;overflow: hidden;" viewBox="0 0 1024 1024" version="1.1" xmlns="http://www.w3.org/2000/svg"><path d="M670.72 359.424c-6.144 0-12.288-3.072-16.384-7.168-7.168-9.216-6.144-21.504 3.072-28.672l83.968-68.608 1.024-1.024c6.144-4.096 8.192-11.264 9.216-15.36 1.024-8.192-1.024-16.384-5.12-22.528-8.192-11.264-25.6-14.336-36.864-5.12l-26.624 20.48c-9.216 7.168-21.504 5.12-28.672-3.072-7.168-9.216-5.12-21.504 3.072-28.672l26.624-21.504c30.72-21.504 72.704-15.36 94.208 13.312 11.264 15.36 16.384 34.816 13.312 53.248-3.072 17.408-11.264 31.744-24.576 41.984l-83.968 68.608c-4.096 2.048-8.192 4.096-12.288 4.096z" fill="#231F20" /><path d="M669.696 499.712c-6.144 0-12.288-3.072-16.384-8.192-7.168-9.216-5.12-21.504 3.072-28.672l125.952-99.328 1.024-1.024c6.144-4.096 8.192-11.264 9.216-15.36 1.024-8.192 0-16.384-5.12-22.528-8.192-11.264-24.576-14.336-36.864-6.144L680.96 368.64c-9.216 6.144-21.504 5.12-28.672-4.096-7.168-9.216-5.12-21.504 4.096-28.672l69.632-51.2c30.72-21.504 72.704-13.312 94.208 16.384 11.264 15.36 15.36 34.816 12.288 53.248-3.072 17.408-12.288 31.744-25.6 40.96l-124.928 99.328c-3.072 4.096-8.192 5.12-12.288 5.12z" fill="#231F20" /><path d="M669.696 735.232c-7.168 0-14.336-4.096-18.432-10.24-5.12-10.24-2.048-22.528 8.192-27.648 52.224-29.696 100.352-65.536 101.376-65.536 26.624-19.456 28.672-29.696 26.624-37.888-3.072-13.312-17.408-21.504-32.768-17.408-10.24 2.048-19.456-3.072-23.552-12.288-4.096-9.216 0-19.456 8.192-25.6l54.272-33.792c15.36-11.264 19.456-23.552 12.288-37.888-8.192-13.312-22.528-18.432-34.816-12.288l-91.136 58.368c-9.216 6.144-22.528 3.072-28.672-6.144-6.144-9.216-3.072-22.528 6.144-28.672l92.16-59.392c1.024 0 1.024-1.024 2.048-1.024 32.768-16.384 69.632-4.096 89.088 27.648 0 0 0 1.024 1.024 1.024 16.384 32.768 7.168 67.584-25.6 91.136 0 0-1.024 0-1.024 1.024l-13.312 8.192c12.288 9.216 21.504 21.504 24.576 36.864 10.24 43.008-28.672 69.632-43.008 79.872-2.048 1.024-50.176 37.888-105.472 68.608-1.024 2.048-5.12 3.072-8.192 3.072z" fill="#231F20" /><path d="M669.696 627.712c-7.168 0-13.312-3.072-17.408-9.216-6.144-9.216-3.072-22.528 6.144-28.672l80.896-51.2c9.216-6.144 22.528-3.072 28.672 6.144 6.144 9.216 3.072 22.528-6.144 28.672l-80.896 51.2c-4.096 2.048-7.168 3.072-11.264 3.072zM371.712 878.592h-6.144c-95.232-12.288-142.336-60.416-164.864-99.328-30.72-52.224-34.816-121.856-11.264-181.248 23.552-59.392 17.408-142.336 12.288-209.92-6.144-77.824-10.24-134.144 28.672-148.48 19.456-7.168 39.936-6.144 57.344 5.12 67.584 41.984 84.992 219.136 87.04 238.592 1.024 11.264-7.168 21.504-18.432 22.528-11.264 1.024-21.504-7.168-22.528-18.432-6.144-67.584-30.72-184.32-68.608-207.872-7.168-4.096-13.312-5.12-21.504-2.048-10.24 8.192-5.12 67.584-2.048 107.52 5.12 71.68 12.288 160.768-15.36 228.352-18.432 48.128-15.36 103.424 9.216 145.408 25.6 44.032 71.68 70.656 135.168 78.848 27.648 4.096 141.312-47.104 212.992-84.992 10.24-5.12 22.528-1.024 27.648 9.216s1.024 22.528-9.216 27.648c-28.672 15.36-174.08 89.088-230.4 89.088z" fill="#231F20" /><path d="M617.472 791.552h-215.04c-37.888 0-69.632-31.744-69.632-70.656V214.016c0-39.936 30.72-71.68 69.632-71.68h215.04c38.912 0 71.68 32.768 71.68 71.68v507.904c0 37.888-32.768 69.632-71.68 69.632z m-215.04-608.256c-15.36 0-28.672 14.336-28.672 30.72v507.904c0 16.384 13.312 29.696 28.672 29.696h215.04c16.384 0 30.72-14.336 30.72-29.696V214.016c0-16.384-14.336-30.72-30.72-30.72h-215.04z" fill="#231F20" /><path d="M510.976 741.376c-3.072 0-5.12-1.024-8.192-2.048-2.048-1.024-5.12-2.048-6.144-4.096-1.024-1.024-2.048-2.048-2.048-3.072-1.024-1.024-1.024-2.048-2.048-3.072s-1.024-2.048-1.024-4.096v-4.096-4.096c0-1.024 1.024-3.072 1.024-4.096s1.024-2.048 2.048-3.072c1.024-1.024 1.024-2.048 2.048-3.072 7.168-7.168 21.504-7.168 28.672 0 1.024 1.024 2.048 2.048 2.048 3.072 1.024 1.024 1.024 2.048 2.048 3.072s1.024 2.048 1.024 4.096v8.192c0 1.024-1.024 2.048-1.024 4.096s-1.024 2.048-2.048 3.072c-1.024 1.024-1.024 2.048-2.048 3.072-4.096 4.096-9.216 6.144-14.336 6.144zM668.672 694.272H353.28c-11.264 0-20.48-9.216-20.48-20.48s9.216-20.48 20.48-20.48h315.392c11.264 0 20.48 9.216 20.48 20.48s-9.216 20.48-20.48 20.48zM668.672 280.576H353.28c-11.264 0-20.48-9.216-20.48-20.48s9.216-20.48 20.48-20.48h315.392c11.264 0 20.48 9.216 20.48 20.48s-9.216 20.48-20.48 20.48z" fill="#231F20" /></svg>